# xmcd
#
# Track frame offsets:
#	150
#	13410
#	29572
#	43352
#	56955
#	71932
#	86180
#	96432
#	110245
#	119685
#
# Disc length: 1808 seconds
#
# Revision: 1
# Processed by: cddbd v1.5.1PL0 Copyright (c) Steve Scherf et al.
# Submitted via: audiograbber 1.81.03
#
DISCID=a9070e0a
DTITLE=Mel Tillis - New Patches
DYEAR=1997
DGENRE=Country
TTITLE0=New Patches
TTITLE1=Rose of El Paso
TTITLE2=Doin' What Comes Natural
TTITLE3=City Lights
TTITLE4=He Drove Her Out Of His Mind
TTITLE5=Best Years Of Your Life
TTITLE6=Right Or Wrong
TTITLE7=Diggin' Up Bones
TTITLE8=Whoa Sailor
TTITLE9=Carolina
EXTD=
EXTT0=
EXTT1=
EXTT2=
EXTT3=
EXTT4=
EXTT5=
EXTT6=
EXTT7=
EXTT8=
EXTT9=
PLAYORDER=
